<svg width="25" height="24" viewBox="0 0 25 24" fill="none" xmlns="http://www.w3.org/2000/svg">
<rect width="24" height="24" transform="translate(0.649658)" fill="white"/>
<path fill-rule="evenodd" clip-rule="evenodd" d="M8.94167 10.293C8.75486 10.4819 8.65009 10.7368 8.65009 11.0025C8.65009 11.2682 8.75486 11.5231 8.94167 11.712L11.8807 14.677C12.0987 14.892 12.3807 14.999 12.6597 14.999C12.9387 14.999 13.2157 14.892 13.4287 14.677L16.3587 11.722C16.5452 11.533 16.6498 11.2781 16.6498 11.0125C16.6498 10.7469 16.5452 10.492 16.3587 10.303C16.2668 10.2098 16.1574 10.1358 16.0367 10.0853C15.916 10.0348 15.7865 10.0088 15.6557 10.0088C15.5248 10.0088 15.3953 10.0348 15.2746 10.0853C15.1539 10.1358 15.0445 10.2098 14.9527 10.303L12.6547 12.62L10.3477 10.293C10.2556 10.2002 10.1461 10.1265 10.0255 10.0762C9.9048 10.0259 9.77538 10.0001 9.64467 10.0001C9.51395 10.0001 9.38453 10.0259 9.26387 10.0762C9.14321 10.1265 9.0337 10.2002 8.94167 10.293Z" fill="#44546F"/>
</svg>
