<svg width="24" height="24" viewBox="0 0 24 24" fill="none" xmlns="http://www.w3.org/2000/svg">
<g clip-path="url(#clip0_16_29)">
<path d="M10.7117 15.9521C10.8864 15.9838 11.0664 16.0003 11.2502 16.0003C12.9071 16.0003 14.2502 14.6571 14.2502 13.0003C14.2502 11.5338 13.198 10.313 11.8073 10.0519C12.7015 7.18515 14.4779 6.04994 17.1365 6.64628L18.47 7.76054H20.3562L21.3923 10.2352L19.6096 11.5696V13.9227L21.3923 16.2107L20.3562 17.8411H18.47L16.4622 18.9393V21.7776L14.0505 23.222L11.5041 21.0442H9.93433L8.05835 23.222L5.87183 21.7776V18.9393C8.26133 19.7475 9.87464 18.7518 10.7117 15.9521ZM11.2502 14.0003C10.698 14.0003 10.2502 13.5526 10.2502 13.0003C10.2502 12.448 10.698 12.0003 11.2502 12.0003C11.8025 12.0003 12.2502 12.448 12.2502 13.0003C12.2502 13.5526 11.8025 14.0003 11.2502 14.0003Z" fill="#D8D8D8"/>
<mask id="mask0_16_29" style="mask-type:luminance" maskUnits="userSpaceOnUse" x="5" y="6" width="17" height="18">
<path d="M10.7117 15.9521C10.8864 15.9838 11.0664 16.0003 11.2502 16.0003C12.9071 16.0003 14.2502 14.6571 14.2502 13.0003C14.2502 11.5338 13.198 10.313 11.8073 10.0519C12.7015 7.18515 14.4779 6.04994 17.1365 6.64628L18.47 7.76054H20.3562L21.3923 10.2352L19.6096 11.5696V13.9227L21.3923 16.2107L20.3562 17.8411H18.47L16.4622 18.9393V21.7776L14.0505 23.222L11.5041 21.0442H9.93433L8.05835 23.222L5.87183 21.7776V18.9393C8.26133 19.7475 9.87464 18.7518 10.7117 15.9521ZM11.2502 14.0003C10.698 14.0003 10.2502 13.5526 10.2502 13.0003C10.2502 12.448 10.698 12.0003 11.2502 12.0003C11.8025 12.0003 12.2502 12.448 12.2502 13.0003C12.2502 13.5526 11.8025 14.0003 11.2502 14.0003Z" fill="#FFA0A0"/>
</mask>
<g mask="url(#mask0_16_29)">
<path d="M23.2502 1.00031H-0.749756V25.0003H23.2502V1.00031Z" fill="#FFA0A0"/>
</g>
<path d="M2.25027 9.86705C3.35568 10.4745 4.10487 11.6499 4.10487 13.0003C4.10487 14.3507 3.35568 15.5261 2.25027 16.1335C2.37141 16.4815 2.51216 16.8203 2.67119 17.1486C3.88226 16.7967 5.24295 17.0981 6.19771 18.0528C7.15247 19.0076 7.45388 20.3683 7.10195 21.5793C7.43025 21.7384 7.76906 21.8791 8.11705 22.0003C8.72449 20.8949 9.89989 20.1457 11.2503 20.1457C12.6007 20.1457 13.7761 20.8949 14.3835 22.0003C14.7315 21.8791 15.0703 21.7384 15.3986 21.5793C15.0467 20.3683 15.3481 19.0076 16.3028 18.0528C17.2576 17.0981 18.6183 16.7967 19.8293 17.1486C19.9884 16.8203 20.1291 16.4815 20.2503 16.1335C19.1449 15.5261 18.3957 14.3507 18.3957 13.0003C18.3957 11.6499 19.1449 10.4745 20.2503 9.86705C20.1291 9.51906 19.9884 9.18025 19.8293 8.85195C18.6183 9.20388 17.2576 8.90247 16.3028 7.94771C15.3481 6.99295 15.0467 5.63226 15.3986 4.42119C15.0703 4.26216 14.7315 4.12141 14.3835 4.00027C13.7761 5.10568 12.6007 5.85487 11.2503 5.85487C9.89989 5.85487 8.72449 5.10568 8.11705 4.00027C7.76906 4.12141 7.43025 4.26216 7.10195 4.42119C7.45388 5.63226 7.15247 6.99295 6.19771 7.94771C5.24295 8.90247 3.88226 9.20388 2.67119 8.85195C2.51216 9.18025 2.37141 9.51906 2.25027 9.86705ZM0.361437 9.20955C0.507571 8.78974 0.677852 8.37928 0.871271 7.98001C1.29647 7.10229 2.29275 6.65924 3.2293 6.9314C3.77849 7.09099 4.37255 6.94444 4.78349 6.53349C5.19444 6.12255 5.34099 5.52849 5.1814 4.9793C4.90924 4.04275 5.35229 3.04647 6.23001 2.62127C6.62928 2.42785 7.03974 2.25757 7.45955 2.11144C8.38121 1.79061 9.39985 2.18181 9.86984 3.03708C10.1453 3.53836 10.669 3.85487 11.2503 3.85487C11.8315 3.85487 12.3552 3.53836 12.6307 3.03708C13.1007 2.18181 14.1193 1.79061 15.041 2.11144C15.4608 2.25757 15.8713 2.42785 16.2705 2.62127C17.1483 3.04647 17.5913 4.04275 17.3191 4.9793C17.1595 5.52849 17.3061 6.12255 17.717 6.53349C18.128 6.94444 18.7221 7.09099 19.2712 6.9314C20.2078 6.65924 21.2041 7.10229 21.6293 7.98001C21.8227 8.37928 21.993 8.78974 22.1391 9.20955C22.4599 10.1312 22.0687 11.1498 21.2135 11.6198C20.7122 11.8953 20.3957 12.419 20.3957 13.0003C20.3957 13.5815 20.7122 14.1052 21.2135 14.3807C22.0687 14.8507 22.4599 15.8693 22.1391 16.791C21.993 17.2108 21.8227 17.6213 21.6293 18.0205C21.2041 18.8983 20.2078 19.3413 19.2712 19.0691C18.7221 18.9095 18.128 19.0561 17.717 19.467C17.3061 19.878 17.1595 20.4721 17.3191 21.0212C17.5913 21.9578 17.1483 22.9541 16.2705 23.3793C15.8713 23.5727 15.4608 23.743 15.041 23.8891C14.1193 24.2099 13.1007 23.8187 12.6307 22.9635C12.3552 22.4622 11.8315 22.1457 11.2503 22.1457C10.669 22.1457 10.1453 22.4622 9.86984 22.9635C9.39985 23.8187 8.38121 24.2099 7.45955 23.8891C7.03974 23.743 6.62928 23.5727 6.23001 23.3793C5.35229 22.9541 4.90924 21.9578 5.1814 21.0212C5.34099 20.4721 5.19444 19.878 4.78349 19.467C4.37255 19.0561 3.77849 18.9095 3.2293 19.0691C2.29275 19.3413 1.29647 18.8983 0.871271 18.0205C0.677852 17.6213 0.507571 17.2108 0.361437 16.791C0.0406088 15.8693 0.431805 14.8507 1.28708 14.3807C1.78836 14.1052 2.10487 13.5815 2.10487 13.0003C2.10487 12.419 1.78836 11.8953 1.28708 11.6198C0.431805 11.1498 0.0406088 10.1312 0.361437 9.20955ZM11.2503 17.0003C13.4594 17.0003 15.2503 15.2094 15.2503 13.0003C15.2503 10.7911 13.4594 9.00027 11.2503 9.00027C9.04113 9.00027 7.25027 10.7911 7.25027 13.0003C7.25027 15.2094 9.04113 17.0003 11.2503 17.0003ZM11.2503 15.0003C10.1457 15.0003 9.25027 14.1048 9.25027 13.0003C9.25027 11.8957 10.1457 11.0003 11.2503 11.0003C12.3548 11.0003 13.2503 11.8957 13.2503 13.0003C13.2503 14.1048 12.3548 15.0003 11.2503 15.0003Z" fill="black"/>
<mask id="mask1_16_29" style="mask-type:luminance" maskUnits="userSpaceOnUse" x="0" y="2" width="23" height="23">
<path d="M2.25027 9.86705C3.35568 10.4745 4.10487 11.6499 4.10487 13.0003C4.10487 14.3507 3.35568 15.5261 2.25027 16.1335C2.37141 16.4815 2.51216 16.8203 2.67119 17.1486C3.88226 16.7967 5.24295 17.0981 6.19771 18.0528C7.15247 19.0076 7.45388 20.3683 7.10195 21.5793C7.43025 21.7384 7.76906 21.8791 8.11705 22.0003C8.72449 20.8949 9.89989 20.1457 11.2503 20.1457C12.6007 20.1457 13.7761 20.8949 14.3835 22.0003C14.7315 21.8791 15.0703 21.7384 15.3986 21.5793C15.0467 20.3683 15.3481 19.0076 16.3028 18.0528C17.2576 17.0981 18.6183 16.7967 19.8293 17.1486C19.9884 16.8203 20.1291 16.4815 20.2503 16.1335C19.1449 15.5261 18.3957 14.3507 18.3957 13.0003C18.3957 11.6499 19.1449 10.4745 20.2503 9.86705C20.1291 9.51906 19.9884 9.18025 19.8293 8.85195C18.6183 9.20388 17.2576 8.90247 16.3028 7.94771C15.3481 6.99295 15.0467 5.63226 15.3986 4.42119C15.0703 4.26216 14.7315 4.12141 14.3835 4.00027C13.7761 5.10568 12.6007 5.85487 11.2503 5.85487C9.89989 5.85487 8.72449 5.10568 8.11705 4.00027C7.76906 4.12141 7.43025 4.26216 7.10195 4.42119C7.45388 5.63226 7.15247 6.99295 6.19771 7.94771C5.24295 8.90247 3.88226 9.20388 2.67119 8.85195C2.51216 9.18025 2.37141 9.51906 2.25027 9.86705ZM0.361437 9.20955C0.507571 8.78974 0.677852 8.37928 0.871271 7.98001C1.29647 7.10229 2.29275 6.65924 3.2293 6.9314C3.77849 7.09099 4.37255 6.94444 4.78349 6.53349C5.19444 6.12255 5.34099 5.52849 5.1814 4.9793C4.90924 4.04275 5.35229 3.04647 6.23001 2.62127C6.62928 2.42785 7.03974 2.25757 7.45955 2.11144C8.38121 1.79061 9.39985 2.18181 9.86984 3.03708C10.1453 3.53836 10.669 3.85487 11.2503 3.85487C11.8315 3.85487 12.3552 3.53836 12.6307 3.03708C13.1007 2.18181 14.1193 1.79061 15.041 2.11144C15.4608 2.25757 15.8713 2.42785 16.2705 2.62127C17.1483 3.04647 17.5913 4.04275 17.3191 4.9793C17.1595 5.52849 17.3061 6.12255 17.717 6.53349C18.128 6.94444 18.7221 7.09099 19.2712 6.9314C20.2078 6.65924 21.2041 7.10229 21.6293 7.98001C21.8227 8.37928 21.993 8.78974 22.1391 9.20955C22.4599 10.1312 22.0687 11.1498 21.2135 11.6198C20.7122 11.8953 20.3957 12.419 20.3957 13.0003C20.3957 13.5815 20.7122 14.1052 21.2135 14.3807C22.0687 14.8507 22.4599 15.8693 22.1391 16.791C21.993 17.2108 21.8227 17.6213 21.6293 18.0205C21.2041 18.8983 20.2078 19.3413 19.2712 19.0691C18.7221 18.9095 18.128 19.0561 17.717 19.467C17.3061 19.878 17.1595 20.4721 17.3191 21.0212C17.5913 21.9578 17.1483 22.9541 16.2705 23.3793C15.8713 23.5727 15.4608 23.743 15.041 23.8891C14.1193 24.2099 13.1007 23.8187 12.6307 22.9635C12.3552 22.4622 11.8315 22.1457 11.2503 22.1457C10.669 22.1457 10.1453 22.4622 9.86984 22.9635C9.39985 23.8187 8.38121 24.2099 7.45955 23.8891C7.03974 23.743 6.62928 23.5727 6.23001 23.3793C5.35229 22.9541 4.90924 21.9578 5.1814 21.0212C5.34099 20.4721 5.19444 19.878 4.78349 19.467C4.37255 19.0561 3.77849 18.9095 3.2293 19.0691C2.29275 19.3413 1.29647 18.8983 0.871271 18.0205C0.677852 17.6213 0.507571 17.2108 0.361437 16.791C0.0406088 15.8693 0.431805 14.8507 1.28708 14.3807C1.78836 14.1052 2.10487 13.5815 2.10487 13.0003C2.10487 12.419 1.78836 11.8953 1.28708 11.6198C0.431805 11.1498 0.0406088 10.1312 0.361437 9.20955ZM11.2503 17.0003C13.4594 17.0003 15.2503 15.2094 15.2503 13.0003C15.2503 10.7911 13.4594 9.00027 11.2503 9.00027C9.04113 9.00027 7.25027 10.7911 7.25027 13.0003C7.25027 15.2094 9.04113 17.0003 11.2503 17.0003ZM11.2503 15.0003C10.1457 15.0003 9.25027 14.1048 9.25027 13.0003C9.25027 11.8957 10.1457 11.0003 11.2503 11.0003C12.3548 11.0003 13.2503 11.8957 13.2503 13.0003C13.2503 14.1048 12.3548 15.0003 11.2503 15.0003Z" fill="#7600FF"/>
</mask>
<g mask="url(#mask1_16_29)">
<path d="M23.2502 1.00024H-0.749756V25.0002H23.2502V1.00024Z" fill="#0C66E4"/>
</g>
</g>
<defs>
<clipPath id="clip0_16_29">
<rect width="24" height="24" fill="white"/>
</clipPath>
</defs>
</svg>
