<svg width="105" height="28" viewBox="0 0 105 28" fill="none" xmlns="http://www.w3.org/2000/svg">
<path d="M16.7463 2.84341L14.9742 3.67149L16.1556 3.90809L17.337 4.14468L17.4551 7.41759C17.5339 9.19205 17.5339 10.6511 17.4551 10.6511C17.3764 10.6511 16.6675 10.4145 15.8012 10.099C13.399 9.27092 11.3906 9.90184 9.38228 12.0706C7.37391 14.2 7.25577 14.9886 8.83096 14.9886C9.7367 14.9886 10.0124 14.7915 10.1699 13.8845C10.5243 12.1889 12.257 10.6511 13.8716 10.6511C15.4468 10.6511 16.9432 12.0312 17.337 13.8451C17.5339 14.7915 17.8096 14.9886 18.7547 14.9886H19.8967V8.48227C19.8967 1.10837 20.0148 1.34497 16.7463 2.84341Z" fill="black"/>
<path d="M28.9554 7.53582C24.6236 9.27085 23.6391 16.1321 27.2227 19.4444C29.428 21.4949 33.7991 21.6132 36.4769 19.681C39.9423 17.2362 39.4698 10.0989 35.6893 7.96958C34.0354 7.0232 30.7669 6.82604 28.9554 7.53582ZM33.7204 9.86234C35.8469 11.0059 36.28 15.6195 34.4292 17.5911C33.1297 19.0107 30.3731 18.8135 29.2311 17.2756C28.286 15.9744 28.1284 12.8198 28.916 11.2819C29.7824 9.66518 32.0664 8.99482 33.7204 9.86234Z" fill="black"/>
<path d="M44.2739 8.00905C43.5651 8.48224 42.5412 9.50749 42.0293 10.2567C41.2023 11.4397 41.1235 11.9917 41.2417 14.476C41.3992 17.67 42.108 18.9713 44.3133 20.2725C47.0699 21.8893 52.583 20.8246 52.8981 18.6164C53.095 17.4334 52.1499 17.1574 50.6534 17.9066C47.8181 19.405 45.0615 18.1826 44.4708 15.1858C44.1558 13.4902 44.7859 11.0059 45.731 10.2173C46.5579 9.54692 49.2751 9.54692 50.8897 10.2567C52.4255 10.9271 53.2131 10.4144 52.7799 9.07373C52.1499 7.06267 46.6761 6.35289 44.2739 8.00905Z" fill="black"/>
<path d="M58.4897 7.96953C56.3238 9.46798 55.5756 10.7693 55.4181 13.5295C55.1424 18.1432 57.8203 21.1006 62.2702 21.0612C66.7594 20.9823 69.2797 18.1432 69.0435 13.5295C68.8072 9.34968 66.405 7.10201 62.2308 7.10201C60.3406 7.10201 59.4742 7.29918 58.4897 7.96953ZM64.2785 10.0595C66.1294 11.3607 66.3657 15.8561 64.6723 17.6305C63.5303 18.8924 60.9313 18.8924 59.7499 17.6305C58.0565 15.8166 58.2928 11.4002 60.183 10.0595C61.2857 9.31025 63.2153 9.31025 64.2785 10.0595Z" fill="black"/>
<path d="M71.5636 7.57526C70.8942 8.24562 70.8942 24.8862 71.5636 25.5565C72.1543 26.148 73.572 26.148 74.1627 25.5565C74.4384 25.2805 74.6353 23.8609 74.6353 22.0076V18.9318L75.4229 19.7205C77.195 21.495 79.8334 21.6527 82.3143 20.1148C83.8108 19.1684 84.4408 18.1826 84.874 15.8561C85.386 13.017 84.6771 10.375 82.905 8.56108C81.5661 7.22037 81.2511 7.10207 79.2427 7.10207C77.51 7.10207 76.8405 7.29923 75.8954 8.08788L74.7534 9.03427L74.3202 8.08788C73.8083 7.02321 72.3906 6.74718 71.5636 7.57526ZM79.794 9.86235C81.4874 10.8087 82.1962 13.8845 81.2905 16.5265C80.7785 18.0249 79.9122 18.5375 77.9826 18.5375C75.7379 18.5375 74.6353 17.0785 74.6353 14.1211C74.6353 12.0706 74.7534 11.6368 75.7773 10.6116C76.9981 9.42859 78.4157 9.15257 79.794 9.86235Z" fill="black"/>
<path d="M89.5607 8.00909C87.9461 9.07377 87.316 10.9271 87.9855 12.5438C88.4974 13.8057 89.9545 14.5549 93.3412 15.4618C94.7982 15.8562 95.3495 16.2111 95.4283 16.8026C95.7039 18.6165 92.7505 19.2079 89.7576 17.9461C87.9855 17.1969 87.1191 17.4335 87.316 18.6165C87.7492 21.6922 96.6491 21.9682 98.2636 18.9713C98.8937 17.7884 98.7362 15.9745 97.9092 14.9492C97.4367 14.3972 95.9796 13.648 94.0894 13.017C91.8841 12.3072 90.939 11.8341 90.8602 11.3214C90.5058 9.50753 93.0655 8.87661 95.6646 10.099C97.3185 10.8877 98.3818 10.6116 98.1849 9.38923C97.8698 7.18101 92.1204 6.27406 89.5607 8.00909Z" fill="black"/>
<path d="M7.02033 17.4334C7.09909 17.7094 7.6504 17.946 8.28048 17.946C8.91055 17.946 9.46187 17.7094 9.58001 17.4334C9.65877 17.1179 9.26497 16.9602 8.28048 16.9602C7.29599 16.9602 6.90219 17.1179 7.02033 17.4334Z" fill="black"/>
<path d="M17.6135 17.4334C17.8892 18.222 19.8975 18.3403 19.8975 17.5911C19.8975 17.1573 19.5038 16.9602 18.6768 16.9602C17.8892 16.9602 17.5348 17.1179 17.6135 17.4334Z" fill="black"/>
<path d="M7.13958 20.0359C6.78516 20.6274 8.51788 23.6637 9.73865 24.4918C11.6289 25.8325 13.6372 25.9113 15.7244 24.6889L17.5358 23.6243V24.6495C17.5358 25.8719 17.6934 25.8719 20.3318 24.7678C22.1827 23.9792 22.3008 23.8609 21.4738 23.6637C20.6862 23.4665 20.4106 23.0328 20.0562 21.6921C19.7017 20.1936 19.4655 19.9176 18.6779 19.9176C17.8903 19.9176 17.6934 20.1542 17.6146 21.14C17.4571 22.8356 16.2363 23.8609 14.3855 23.8609C12.6921 23.8609 11.9045 23.3088 10.605 21.2189C9.85679 20.0359 9.38423 19.7204 8.4785 19.7204C7.84842 19.7204 7.25772 19.8782 7.13958 20.0359Z" fill="black"/>
</svg>
