<svg width="24" height="24" viewBox="0 0 24 24" fill="none" xmlns="http://www.w3.org/2000/svg">
<path fill-rule="evenodd" clip-rule="evenodd" d="M16.436 15.085L20.376 19.095C20.5525 19.2858 20.6478 19.5378 20.6417 19.7976C20.6356 20.0575 20.5286 20.3047 20.3433 20.487C20.158 20.6693 19.9091 20.7722 19.6492 20.7741C19.3893 20.776 19.1389 20.6766 18.951 20.497L15.013 16.491C13.4935 17.6357 11.5959 18.1602 9.70428 17.9583C7.81266 17.7564 6.06845 16.8432 4.82482 15.4036C3.58118 13.9641 2.93106 12.1057 3.00608 10.2048C3.08111 8.30394 3.87568 6.5026 5.22891 5.16554C6.58214 3.82848 8.3929 3.05561 10.2945 3.00343C12.1962 2.95126 14.0466 3.62367 15.4711 4.88451C16.8956 6.14536 17.7878 7.90042 17.9669 9.79432C18.1461 11.6882 17.5988 13.5794 16.436 15.085ZM10.5 16C11.9587 16 13.3576 15.4206 14.3891 14.3891C15.4205 13.3577 16 11.9587 16 10.5C16 9.04134 15.4205 7.64239 14.3891 6.61094C13.3576 5.57949 11.9587 5.00003 10.5 5.00003C9.04131 5.00003 7.64236 5.57949 6.61091 6.61094C5.57946 7.64239 5 9.04134 5 10.5C5 11.9587 5.57946 13.3577 6.61091 14.3891C7.64236 15.4206 9.04131 16 10.5 16Z" fill="#626F86"/>
</svg>
